# xmcd
#
# Track frame offsets:
#	150
#	21434
#	39416
#	64335
#	80281
#	95189
#	109356
#	126505
#	142350
#	159100
#
# Disc length: 2345 seconds
#
# Revision: 19
# Processed by: cddbd v1.5.2PL0 Copyright (c) Steve Scherf et al.
# Submitted via: Jack! The Knife 20 Magnifico
#
DISCID=9209270a
DTITLE=Anvil - Forged In Fire
DYEAR=1983
DGENRE=Heavy Metal
TTITLE0=Forged In Fire
TTITLE1=Shadow Zone
TTITLE2=Free As The Wind
TTITLE3=Never Deceive Me
TTITLE4=Butter-Bust Jerky
TTITLE5=Future Wars
TTITLE6=Hard Times - Fast Ladies
TTITLE7=Make It Up To You
TTITLE8=Motormount
TTITLE9=Winged Assassins
EXTD=Chris Tsangarides
EXTT0=Kudlow, Allison, Dickson, Reiner
EXTT1=Kudlow, Allison, Dickson, Reiner
EXTT2=Kudlow, Allison, Dickson, Reiner
EXTT3=Kudlow, Allison, Dickson, Reiner
EXTT4=Kudlow, Allison, Dickson, Reiner
EXTT5=Kudlow, Allison, Dickson, Reiner
EXTT6=Kudlow, Allison, Dickson, Reiner
EXTT7=Kudlow, Allison, Dickson, Reiner
EXTT8=Kudlow, Allison, Dickson, Reiner
EXTT9=Kudlow, Allison, Dickson, Reiner
PLAYORDER=
